<svg width="22" height="20" viewBox="0 0 22 20" fill="none" xmlns="http://www.w3.org/2000/svg">
<path d="M2.39062 18.5308V1.61328H13.8572V18.3798" stroke="white" stroke-width="2" stroke-miterlimit="10"/>
<path d="M13.8594 5.89844H19.6865V18.5304" stroke="white" stroke-width="2" stroke-miterlimit="10"/>
<path d="M0 19H22" stroke="white" stroke-width="2" stroke-miterlimit="10"/>
<path d="M7.36854 4.44238H4.53906V6.70597H7.36854V4.44238Z" fill="white"/>
<path d="M11.6146 4.44238H8.78516V6.70597H11.6146V4.44238Z" fill="white"/>
<path d="M7.36854 8.12109H4.53906V10.3847H7.36854V8.12109Z" fill="white"/>
<path d="M11.6146 8.12109H8.78516V10.3847H11.6146V8.12109Z" fill="white"/>
<path d="M17.5554 8.12109H16.1406V10.3847H17.5554V8.12109Z" fill="white"/>
<path d="M17.5554 11.5166H16.1406V13.7802H17.5554V11.5166Z" fill="white"/>
<path d="M7.36854 11.5166H4.53906V13.7802H7.36854V11.5166Z" fill="white"/>
<path d="M11.6146 11.5166H8.78516V13.7802H11.6146V11.5166Z" fill="white"/>
</svg>
