<svg width="22" height="22" viewBox="0 0 22 22" fill="none" xmlns="http://www.w3.org/2000/svg">
<path d="M20.6467 11.0001C20.6467 13.8727 19.3909 16.452 17.3987 18.2192C15.6964 19.7286 13.4557 20.6457 11.0013 20.6457C8.54679 20.6457 6.30615 19.7286 4.60342 18.2192C2.61125 16.452 1.35547 13.8727 1.35547 11.0001C1.35547 5.67306 5.67373 1.35449 11.0013 1.35449C16.3288 1.35449 20.6467 5.67306 20.6467 11.0001Z" stroke="#231F20" stroke-width="2" stroke-miterlimit="10"/>
<path d="M11.0011 13.8058C12.9584 13.8058 14.5452 12.2191 14.5452 10.2618C14.5452 8.30448 12.9584 6.71777 11.0011 6.71777C9.04377 6.71777 7.45703 8.30448 7.45703 10.2618C7.45703 12.2191 9.04377 13.8058 11.0011 13.8058Z" stroke="#231F20" stroke-width="2" stroke-miterlimit="10"/>
<path d="M17.3969 18.2185C15.6945 19.7279 13.4539 20.645 10.9994 20.645C8.54494 20.645 6.30429 19.7279 4.60156 18.2185C5.58091 15.6385 8.07594 13.8047 10.9994 13.8047C13.9229 13.8047 16.4175 15.6385 17.3969 18.2185Z" stroke="#231F20" stroke-width="2" stroke-miterlimit="10"/>
</svg>
