<svg width="42" height="42" viewBox="0 0 42 42" fill="none" xmlns="http://www.w3.org/2000/svg">
<rect x="0.5" y="0.5" width="41" height="41" rx="20.5" stroke="#38388A" stroke-opacity="0.16"/>
<path d="M21 23.88C22.5906 23.88 23.88 22.5906 23.88 21C23.88 19.4094 22.5906 18.12 21 18.12C19.4094 18.12 18.12 19.4094 18.12 21C18.12 22.5906 19.4094 23.88 21 23.88Z" fill="#1C1C1C"/>
<path d="M24.96 12H17.04C15.7033 12 14.4214 12.531 13.4762 13.4762C12.531 14.4214 12 15.7033 12 17.04V24.96C12 26.2967 12.531 27.5786 13.4762 28.5238C14.4214 29.469 15.7033 30 17.04 30H24.96C26.2967 30 27.5786 29.469 28.5238 28.5238C29.469 27.5786 30 26.2967 30 24.96V17.04C30 15.7033 29.469 14.4214 28.5238 13.4762C27.5786 12.531 26.2967 12 24.96 12ZM21 25.32C20.1456 25.32 19.3104 25.0666 18.5999 24.5919C17.8895 24.1173 17.3358 23.4426 17.0088 22.6532C16.6819 21.8638 16.5963 20.9952 16.763 20.1572C16.9297 19.3192 17.3411 18.5495 17.9453 17.9453C18.5495 17.3411 19.3192 16.9297 20.1572 16.763C20.9952 16.5963 21.8638 16.6819 22.6532 17.0088C23.4426 17.3358 24.1173 17.8895 24.5919 18.5999C25.0666 19.3104 25.32 20.1456 25.32 21C25.32 22.1457 24.8649 23.2445 24.0547 24.0547C23.2445 24.8649 22.1457 25.32 21 25.32ZM25.68 17.4C25.4664 17.4 25.2576 17.3367 25.08 17.218C24.9024 17.0993 24.764 16.9306 24.6822 16.7333C24.6005 16.536 24.5791 16.3188 24.6208 16.1093C24.6624 15.8998 24.7653 15.7074 24.9163 15.5563C25.0674 15.4053 25.2598 15.3024 25.4693 15.2608C25.6788 15.2191 25.896 15.2405 26.0933 15.3222C26.2906 15.404 26.4593 15.5424 26.578 15.72C26.6967 15.8976 26.76 16.1064 26.76 16.32C26.76 16.6064 26.6462 16.8811 26.4437 17.0837C26.2411 17.2862 25.9664 17.4 25.68 17.4Z" fill="#1C1C1C"/>
</svg>
