<svg width="42" height="42" viewBox="0 0 42 42" fill="none" xmlns="http://www.w3.org/2000/svg">
<rect x="0.5" y="0.5" width="41" height="41" rx="20.5" stroke="#38388A" stroke-opacity="0.16"/>
<path d="M21 11.3125C15.6583 11.3125 11.3125 15.6583 11.3125 21C11.3125 26.3417 15.6583 30.6875 21 30.6875C26.3417 30.6875 30.6875 26.3417 30.6875 21C30.6875 15.6583 26.3417 11.3125 21 11.3125ZM27.4051 15.7799C28.5575 17.188 29.2554 18.9814 29.2736 20.9344C29.0008 20.8767 26.2651 20.3218 23.5118 20.6681C23.2871 20.1196 23.0751 19.6371 22.7846 19.0425C25.844 17.7934 27.2306 16.0159 27.4051 15.7799ZM26.4852 14.8231C26.3364 15.035 25.0908 16.7092 22.1484 17.8121C20.7925 15.3208 19.2896 13.2743 19.0609 12.968C21.685 12.3355 24.4502 13.0176 26.4852 14.8231ZM17.4821 13.5242C17.7002 13.8234 19.1789 15.8725 20.5499 18.3097C16.6793 19.3376 13.2702 19.3228 12.9002 19.3179C13.4367 16.7502 15.1671 14.6161 17.4821 13.5242ZM12.7254 21.0126C12.7254 20.928 12.7271 20.8438 12.7296 20.7598C13.0916 20.7672 17.1015 20.8189 21.2338 19.5822C21.4706 20.0458 21.6969 20.5164 21.9046 20.9865C18.9125 21.8292 16.1939 24.2492 14.8526 26.5453C13.531 25.0783 12.7254 23.1379 12.7254 21.0126ZM15.921 27.5405C16.7853 25.7736 19.1311 23.4927 22.467 22.3547C23.6287 25.3736 24.1092 27.9036 24.2322 28.6296C21.5716 29.7629 18.3723 29.452 15.921 27.5405ZM25.6233 27.8721C25.5385 27.3687 25.0981 24.9464 24.0158 21.9723C26.6088 21.5573 28.8869 22.2367 29.17 22.3261C28.8012 24.6284 27.4796 26.6168 25.6233 27.8721Z" fill="#171618"/>
</svg>
