<svg width="42" height="42" viewBox="0 0 42 42" fill="none" xmlns="http://www.w3.org/2000/svg">
<rect x="0.5" y="0.5" width="41" height="41" rx="20.5" stroke="#38388A" stroke-opacity="0.16"/>
<g clip-path="url(#clip0_6_3249)">
<path d="M30.2704 15.282C29.5755 15.5868 28.8349 15.7889 28.0629 15.887C28.8571 15.4128 29.4633 14.6676 29.7483 13.7694C29.0078 14.2109 28.1902 14.5228 27.3188 14.6968C26.6157 13.9481 25.6135 13.4844 24.5202 13.4844C22.3991 13.4844 20.6915 15.206 20.6915 17.3167C20.6915 17.6203 20.7172 17.9124 20.7802 18.1904C17.595 18.035 14.7766 16.5084 12.8832 14.1829C12.5527 14.7564 12.3588 15.4128 12.3588 16.1194C12.3588 17.4463 13.0421 18.6225 14.0606 19.3035C13.445 19.2918 12.8412 19.1131 12.3296 18.8316C12.3296 18.8433 12.3296 18.8585 12.3296 18.8736C12.3296 20.7355 13.6576 22.2819 15.3991 22.6382C15.0873 22.7235 14.7474 22.7643 14.3946 22.7643C14.1493 22.7643 13.9017 22.7503 13.6693 22.6989C14.1657 24.2162 15.5743 25.3317 17.2493 25.3679C15.9458 26.3876 14.2907 27.0019 12.4989 27.0019C12.1847 27.0019 11.8834 26.9879 11.582 26.9494C13.2792 28.0438 15.2905 28.6687 17.4595 28.6687C24.5097 28.6687 28.3642 22.8286 28.3642 17.7664C28.3642 17.597 28.3584 17.4335 28.3502 17.2711C29.1106 16.7315 29.7495 16.0575 30.2704 15.282Z" fill="#171618"/>
</g>
<defs>
<clipPath id="clip0_6_3249">
<rect width="19" height="16" fill="white" transform="translate(11.5 13)"/>
</clipPath>
</defs>
</svg>
