<svg width="21" height="19" viewBox="0 0 21 19" fill="none" xmlns="http://www.w3.org/2000/svg">
<path d="M14.5626 15.4551C14.9955 15.2657 15.4134 15.0437 15.8126 14.791V17.8301C15.8126 17.9958 15.7468 18.1548 15.6295 18.272C15.5123 18.3892 15.3534 18.4551 15.1876 18.4551C15.0218 18.4551 14.8629 18.3892 14.7457 18.272C14.6284 18.1548 14.5626 17.9958 14.5626 17.8301V15.4551ZM9.94541 6.28319C9.86971 6.43088 9.85428 6.60219 9.90237 6.76103C9.95046 6.91987 10.0583 7.05385 10.2032 7.13475L13.8595 9.08007L15.1876 8.36913L10.797 6.02538C10.6493 5.94968 10.478 5.93425 10.3191 5.98234C10.1603 6.03043 10.0263 6.13828 9.94541 6.28319ZM20.172 6.02538L10.797 1.02538C10.7048 0.979307 10.6032 0.955322 10.5001 0.955322C10.397 0.955322 10.2954 0.979307 10.2032 1.02538L0.828225 6.02538C0.72884 6.07995 0.645944 6.16022 0.588203 6.2578C0.530463 6.35538 0.5 6.46668 0.5 6.58007C0.5 6.69345 0.530463 6.80475 0.588203 6.90233C0.645944 6.99991 0.72884 7.08018 0.828225 7.13475L2.6876 8.11913V12.0098C2.68642 12.278 2.77436 12.5391 2.9376 12.7519C3.55479 13.5801 5.92979 16.2676 10.5001 16.2676C11.8965 16.2792 13.2801 15.9998 14.5626 15.4473V9.45507L13.8595 9.08007L10.5001 10.8691L3.60948 7.19725L2.45323 6.58007L10.5001 2.291L18.547 6.58007L17.3907 7.19725L15.1876 8.36913L15.4845 8.52538C15.5902 8.5864 15.6767 8.67568 15.7345 8.78319C15.7864 8.87345 15.8134 8.97592 15.8126 9.08007V14.791C16.6759 14.2479 17.4374 13.5578 18.0626 12.7519C18.2258 12.5391 18.3138 12.278 18.3126 12.0098V8.11913L20.172 7.13475C20.2714 7.08018 20.3543 6.99991 20.412 6.90233C20.4697 6.80475 20.5002 6.69345 20.5002 6.58007C20.5002 6.46668 20.4697 6.35538 20.412 6.2578C20.3543 6.16022 20.2714 6.07995 20.172 6.02538Z" fill="#1C1C1C"/>
</svg>
